<?xml version="1.0" encoding="UTF-8" standalone="no"?>
<!-- Created with Inkscape (http://www.inkscape.org/) -->

<svg
   xmlns:dc="http://purl.org/dc/elements/1.1/"
   xmlns:cc="http://creativecommons.org/ns#"
   xmlns:rdf="http://www.w3.org/1999/02/22-rdf-syntax-ns#"
   xmlns:svg="http://www.w3.org/2000/svg"
   xmlns="http://www.w3.org/2000/svg"
   xmlns:sodipodi="http://sodipodi.sourceforge.net/DTD/sodipodi-0.dtd"
   xmlns:inkscape="http://www.inkscape.org/namespaces/inkscape"
   width="212.53349mm"
   height="87.54937mm"
   viewBox="0 0 753.07143 310.2143"
   id="svg2"
   version="1.1"
   inkscape:version="0.91 r13725"
   sodipodi:docname="spatial_website_logo.svg"
   inkscape:export-filename="/Users/nicholasclark/Desktop/spatial_logo.png"
   inkscape:export-xdpi="800"
   inkscape:export-ydpi="800">
  <defs
     id="defs4">
    <filter
       inkscape:label="Button"
       inkscape:menu="Bevels"
       inkscape:menu-tooltip="Soft bevel, slightly depressed middle"
       style="color-interpolation-filters:sRGB"
       id="filter4382">
      <feGaussianBlur
         stdDeviation="2.3"
         in="SourceAlpha"
         result="result0"
         id="feGaussianBlur4384" />
      <feMorphology
         in="SourceAlpha"
         radius="6.6"
         result="result1"
         id="feMorphology4386" />
      <feGaussianBlur
         stdDeviation="8.9"
         in="result1"
         id="feGaussianBlur4388" />
      <feColorMatrix
         values="1 0 0 0 0 0 1 0 0 0 0 0 1 0 0 0 0 0 0.3 0"
         result="result91"
         id="feColorMatrix4390" />
      <feComposite
         in="result0"
         operator="out"
         result="result2"
         in2="result91"
         id="feComposite4392" />
      <feGaussianBlur
         stdDeviation="1.7"
         result="result4"
         id="feGaussianBlur4394" />
      <feDiffuseLighting
         surfaceScale="10"
         id="feDiffuseLighting4396">
        <feDistantLight
           azimuth="225"
           elevation="45"
           id="feDistantLight4398" />
      </feDiffuseLighting>
      <feBlend
         in2="SourceGraphic"
         mode="multiply"
         id="feBlend4400" />
      <feComposite
         in2="SourceAlpha"
         operator="in"
         result="result3"
         id="feComposite4402" />
      <feSpecularLighting
         in="result4"
         surfaceScale="5"
         specularExponent="17.89999962"
         id="feSpecularLighting4404">
        <feDistantLight
           azimuth="225"
           elevation="45"
           id="feDistantLight4406" />
      </feSpecularLighting>
      <feComposite
         in2="result3"
         operator="atop"
         id="feComposite4408" />
    </filter>
    <filter
       inkscape:label="Bloom"
       inkscape:menu="Bevels"
       inkscape:menu-tooltip="Soft, cushion-like bevel with matte highlights"
       style="color-interpolation-filters:sRGB"
       id="filter4479">
      <feGaussianBlur
         result="result1"
         in="SourceAlpha"
         stdDeviation="2.2"
         id="feGaussianBlur4481" />
      <feSpecularLighting
         result="result0"
         specularExponent="18.10000038"
         specularConstant="2"
         surfaceScale="5"
         id="feSpecularLighting4483">
        <feDistantLight
           azimuth="225"
           elevation="24"
           id="feDistantLight4485" />
      </feSpecularLighting>
      <feComposite
         result="result6"
         operator="in"
         in2="SourceAlpha"
         id="feComposite4487" />
      <feMorphology
         radius="5.7"
         operator="dilate"
         id="feMorphology4489" />
      <feGaussianBlur
         result="result11"
         stdDeviation="5.7"
         id="feGaussianBlur4491" />
      <feDiffuseLighting
         surfaceScale="5"
         result="result3"
         diffuseConstant="2"
         in="result1"
         id="feDiffuseLighting4493">
        <feDistantLight
           elevation="25"
           azimuth="225"
           id="feDistantLight4495" />
      </feDiffuseLighting>
      <feBlend
         result="result7"
         mode="multiply"
         in="result3"
         in2="SourceGraphic"
         id="feBlend4497" />
      <feComposite
         in="result7"
         operator="in"
         in2="SourceAlpha"
         result="result91"
         id="feComposite4499" />
      <feBlend
         result="result9"
         mode="lighten"
         in="result6"
         in2="result91"
         id="feBlend4501" />
      <feComposite
         in="result11"
         in2="result9"
         id="feComposite4503" />
    </filter>
    <filter
       inkscape:label="Bloom"
       inkscape:menu="Bevels"
       inkscape:menu-tooltip="Soft, cushion-like bevel with matte highlights"
       style="color-interpolation-filters:sRGB"
       id="filter4382-6">
      <feGaussianBlur
         stdDeviation="2.3"
         in="SourceAlpha"
         result="result0"
         id="feGaussianBlur4384-0" />
      <feMorphology
         in="SourceAlpha"
         radius="6.6"
         result="result1"
         id="feMorphology4386-0" />
      <feGaussianBlur
         stdDeviation="8.9"
         in="result1"
         id="feGaussianBlur4388-9" />
      <feColorMatrix
         values="1 0 0 0 0 0 1 0 0 0 0 0 1 0 0 0 0 0 0.3 0"
         result="result91"
         id="feColorMatrix4390-4" />
      <feComposite
         in="result0"
         operator="out"
         result="result2"
         in2="result91"
         id="feComposite4392-0" />
      <feGaussianBlur
         stdDeviation="1.7"
         result="result4"
         id="feGaussianBlur4394-4" />
      <feDiffuseLighting
         surfaceScale="10"
         id="feDiffuseLighting4396-3">
        <feDistantLight
           azimuth="225"
           elevation="45"
           id="feDistantLight4398-5" />
      </feDiffuseLighting>
      <feBlend
         in2="SourceGraphic"
         mode="multiply"
         id="feBlend4400-8" />
      <feComposite
         in2="SourceAlpha"
         operator="in"
         result="result3"
         id="feComposite4402-5" />
      <feSpecularLighting
         in="result4"
         surfaceScale="5"
         specularExponent="17.89999962"
         id="feSpecularLighting4404-4">
        <feDistantLight
           azimuth="225"
           elevation="45"
           id="feDistantLight4406-8" />
      </feSpecularLighting>
      <feComposite
         in2="result3"
         operator="atop"
         id="feComposite4408-3"
         result="fbSourceGraphic" />
      <feColorMatrix
         result="fbSourceGraphicAlpha"
         in="fbSourceGraphic"
         values="0 0 0 -1 0 0 0 0 -1 0 0 0 0 -1 0 0 0 0 1 0"
         id="feColorMatrix4397" />
      <feGaussianBlur
         id="feGaussianBlur4399"
         result="result1"
         in="fbSourceGraphicAlpha"
         stdDeviation="2.2" />
      <feSpecularLighting
         id="feSpecularLighting4401"
         result="result0"
         specularExponent="18.10000038"
         specularConstant="2"
         surfaceScale="5">
        <feDistantLight
           id="feDistantLight4403"
           azimuth="225"
           elevation="24" />
      </feSpecularLighting>
      <feComposite
         id="feComposite4405"
         in2="fbSourceGraphicAlpha"
         result="result6"
         operator="in" />
      <feMorphology
         id="feMorphology4407"
         radius="5.7"
         operator="dilate" />
      <feGaussianBlur
         id="feGaussianBlur4409"
         result="result11"
         stdDeviation="5.7" />
      <feDiffuseLighting
         id="feDiffuseLighting4411"
         surfaceScale="5"
         result="result3"
         diffuseConstant="2"
         in="result1">
        <feDistantLight
           id="feDistantLight4413"
           elevation="25"
           azimuth="225" />
      </feDiffuseLighting>
      <feBlend
         id="feBlend4415"
         in2="fbSourceGraphic"
         result="result7"
         mode="multiply"
         in="result3" />
      <feComposite
         id="feComposite4417"
         in2="fbSourceGraphicAlpha"
         in="result7"
         operator="in"
         result="result91" />
      <feBlend
         id="feBlend4419"
         in2="result91"
         result="result9"
         mode="lighten"
         in="result6" />
      <feComposite
         id="feComposite4421"
         in2="result9"
         in="result11" />
    </filter>
    <filter
       style="color-interpolation-filters:sRGB"
       inkscape:label="Matte Jelly"
       id="filter5366">
      <feColorMatrix
         values="1 0 0 0 0 0 1 0 0 0 0 0 1 0 0 0 0 0 0.85 0"
         result="color"
         in="SourceGraphic"
         id="feColorMatrix5368" />
      <feGaussianBlur
         in="SourceAlpha"
         stdDeviation="3.75"
         result="blur"
         id="feGaussianBlur5370" />
      <feSpecularLighting
         in="blur"
         specularExponent="25"
         specularConstant="1"
         surfaceScale="5"
         lighting-color="#eaedfd"
         result="specular"
         id="feSpecularLighting5372">
        <feDistantLight
           elevation="148"
           azimuth="296"
           id="feDistantLight5374" />
      </feSpecularLighting>
      <feComposite
         in="specular"
         in2="SourceGraphic"
         k3="1"
         k2="1"
         operator="arithmetic"
         result="composite1"
         id="feComposite5376"
         k1="0"
         k4="0" />
      <feComposite
         in="composite1"
         in2="color"
         operator="atop"
         result="composite2"
         id="feComposite5378" />
    </filter>
    <filter
       style="color-interpolation-filters:sRGB"
       inkscape:label="Matte Jelly"
       id="filter5380">
      <feColorMatrix
         values="1 0 0 0 0 0 1 0 0 0 0 0 1 0 0 0 0 0 0.85 0"
         result="color"
         in="SourceGraphic"
         id="feColorMatrix5382" />
      <feGaussianBlur
         in="SourceAlpha"
         stdDeviation="3.75"
         result="blur"
         id="feGaussianBlur5384" />
      <feSpecularLighting
         in="blur"
         specularExponent="25"
         specularConstant="1"
         surfaceScale="5"
         lighting-color="#eaedfd"
         result="specular"
         id="feSpecularLighting5386">
        <feDistantLight
           elevation="148"
           azimuth="296"
           id="feDistantLight5388" />
      </feSpecularLighting>
      <feComposite
         in="specular"
         in2="SourceGraphic"
         k3="1"
         k2="1"
         operator="arithmetic"
         result="composite1"
         id="feComposite5390"
         k1="0"
         k4="0" />
      <feComposite
         in="composite1"
         in2="color"
         operator="atop"
         result="composite2"
         id="feComposite5392" />
    </filter>
    <filter
       style="color-interpolation-filters:sRGB"
       inkscape:label="Matte Jelly"
       id="filter5394">
      <feColorMatrix
         values="1 0 0 0 0 0 1 0 0 0 0 0 1 0 0 0 0 0 0.85 0"
         result="color"
         in="SourceGraphic"
         id="feColorMatrix5396" />
      <feGaussianBlur
         in="SourceAlpha"
         stdDeviation="3.75"
         result="blur"
         id="feGaussianBlur5398" />
      <feSpecularLighting
         in="blur"
         specularExponent="25"
         specularConstant="1"
         surfaceScale="5"
         lighting-color="#eaedfd"
         result="specular"
         id="feSpecularLighting5400">
        <feDistantLight
           elevation="148"
           azimuth="296"
           id="feDistantLight5402" />
      </feSpecularLighting>
      <feComposite
         in="specular"
         in2="SourceGraphic"
         k3="1"
         k2="1"
         operator="arithmetic"
         result="composite1"
         id="feComposite5404"
         k1="0"
         k4="0" />
      <feComposite
         in="composite1"
         in2="color"
         operator="atop"
         result="composite2"
         id="feComposite5406" />
    </filter>
  </defs>
  <sodipodi:namedview
     id="base"
     pagecolor="#ffffff"
     bordercolor="#666666"
     borderopacity="1.0"
     inkscape:pageopacity="0.0"
     inkscape:pageshadow="2"
     inkscape:zoom="0.7"
     inkscape:cx="384.56859"
     inkscape:cy="-34.289653"
     inkscape:document-units="px"
     inkscape:current-layer="layer1"
     showgrid="false"
     inkscape:window-width="1440"
     inkscape:window-height="802"
     inkscape:window-x="0"
     inkscape:window-y="0"
     inkscape:window-maximized="1"
     fit-margin-top="0"
     fit-margin-left="0"
     fit-margin-right="0"
     fit-margin-bottom="0" />
  <metadata
     id="metadata7">
    <rdf:RDF>
      <cc:Work
         rdf:about="">
        <dc:format>image/svg+xml</dc:format>
        <dc:type
           rdf:resource="http://purl.org/dc/dcmitype/StillImage" />
        <dc:title></dc:title>
      </cc:Work>
    </rdf:RDF>
  </metadata>
  <g
     inkscape:label="Layer 1"
     inkscape:groupmode="layer"
     id="layer1"
     transform="translate(-158.32747,-128.26205)">
    <path
       id="path4281"
       d="m 366.99808,442.44078 3.29454,0.68991 c -3.20428,0.16233 -6.40856,0.28407 -9.65798,0.28407 -98.33984,0 -178.08583,-71.628 -178.08583,-160.05714 0,-38.10691 14.80288,-72.72374 39.53452,-100.23863 l 0.0903,2.35378 1.66983,0 1.62471,-2.71903 3.47506,-2.43494 1.21853,-1.90738 2.03089,-2.80019 0.63183,1.46097 0.99287,1.29864 -0.40617,1.29864 -2.88837,3.28718 -1.89549,2.19145 -1.30879,3.85533 -1.66984,2.5567 -3.02376,1.78562 0,2.23204 -1.35392,2.02912 -0.85748,2.39436 -0.94775,2.19146 -1.1734,1.66388 -1.6247,2.55669 -0.99288,4.22057 -1.6247,2.92193 -1.85036,3.28718 -1.44419,4.05825 -0.22565,2.7596 -0.22565,2.19145 -1.26366,1.82621 -1.48932,2.39438 -3.33967,6.98018 -2.25654,5.88445 -3.29454,7.58892 0,5.27571 0,5.03223 1.44418,3.12484 1.39906,4.05825 0.5867,3.65242 -1.48932,2.27261 0,1.74505 0,2.19145 0,2.59728 1.80523,2.71902 0.85748,4.46407 1.7601,3.44951 0,6.16853 0,5.23513 2.3468,3.28718 1.66984,3.28718 1.6247,3.49008 1.85036,2.39437 0.81236,2.39436 2.25653,1.09573 1.44418,1.66388 2.03089,0.56815 -2.03089,-4.05824 -2.48219,-5.15398 -1.66983,-4.58581 -0.85749,-2.7596 -0.90261,-3.85533 -1.03801,-2.92194 -2.16627,-2.7596 0,-3.08427 0,-2.63786 1.6247,1.46097 1.03801,3.12485 0.76722,2.88135 0,3.0031 1.30879,4.05824 1.57958,4.05825 1.89549,4.58581 2.25654,4.22058 1.66983,3.28718 1.21853,2.7596 1.21853,3.28718 2.03088,3.49009 1.85036,1.66388 2.43706,2.19145 1.44419,1.29864 2.84323,3.12485 1.62471,2.39436 2.03088,2.39437 2.84324,1.66388 3.47506,1.1363 3.06889,0.81165 3.06889,0.77107 2.66271,1.29864 4.06177,0 c 0,0 2.66271,2.55669 3.24941,2.92193 0.5867,0.36524 3.24941,1.37981 3.24941,1.37981 l 4.06177,1.94795 c 0,0 2.84323,0.16233 3.88124,0.16233 1.038,0 1.44418,0.52757 1.44418,0.52757 l 2.03088,1.66388 2.43707,2.39437 2.84323,3.28718 2.43706,2.02912 2.03088,1.82621 2.25654,0.73048 2.66271,1.46097 0.81235,1.29864 2.43706,-0.56816 1.85036,0.56816 2.03089,1.82621 1.21853,0.73048 1.44418,-0.56815 1.44418,-1.66388 0.63183,-1.66388 1.21853,0.73048 3.65559,3.12485 1.21853,1.46097 0.40618,2.19145 1.39905,1.82621 0.36104,2.02912 0.0903,2.55669 -1.03801,1.09573 -1.62471,1.98854 0,1.33922 -0.13539,1.29864 -0.45131,1.82621 1.08314,3.49009 2.48219,3.28717 0.40618,1.82621 1.038,2.19146 1.21853,2.7596 2.25654,1.09573 2.66271,1.46097 0.81235,1.09572 2.43706,2.19145 3.88125,3.28718 3.06888,1.82621 4.06177,2.39437 4.28742,1.8262 3.88124,0.73049 2.66271,1.46097 2.43706,2.02912 3.06889,1.29864 3.06889,2.02912 2.66271,2.92193 1.85036,2.19146 1.21853,1.82621 1.89549,2.39436 2.39193,2.19145 3.06889,1.66388 3.61046,3.36834 z m 153.71523,-212.48965 0,2.19145 2.43706,2.27262 -1.35392,1.46096 -1.35392,-1.66388 -2.9335,-1.8262 -2.93349,-0.9334 -0.99288,-1.66388 -0.94775,-2.5567 -0.94774,-3.28718 -3.20428,-4.42349 -1.03801,2.02913 -1.08314,1.29863 -1.94062,1.66388 -2.66271,2.02913 -1.57957,3.65242 0,2.39437 -0.90262,2.39436 -1.53444,0.9334 -2.79811,0.89281 -1.39905,1.82621 c 0,0 -2.03088,3.85533 0,8.44115 0,0 -3.02376,6.41202 -0.90261,7.50775 2.12114,1.09573 0.67696,5.3163 0.67696,5.3163 l 1.57957,2.55669 -1.53444,1.46097 c 0,0 -5.05464,4.22057 -3.15915,8.80639 l -0.31592,3.53067 0,2.96252 -0.99287,3.693 0,2.02912 0,3.53068 0.99287,4.86989 0,2.15087 2.03088,2.23203 -0.31591,2.5567 0.27078,2.39436 0.63183,2.19145 -1.038,1.66388 -0.49644,2.02912 0.85748,2.7596 -0.94774,2.92195 0,3.24659 -0.49644,1.70446 0,2.23204 2.57245,1.42038 1.71497,2.39437 0.27078,2.19145 1.85036,1.82621 1.85036,1.09573 0.40618,2.59727 0.40617,2.59728 2.25654,2.27261 1.03801,2.67845 3.24941,2.84077 2.48219,0 2.66271,-2.96252 2.03088,-3.73359 1.85036,-2.63786 0.18053,-1.66388 2.30166,-0.20291 2.75298,-2.59727 2.2114,-1.09573 1.1734,2.75961 -0.90261,3.65242 -3.38481,5.3163 -2.07601,3.28717 0,3.36835 -0.63183,5.11338 -1.94062,4.58582 -1.7601,3.28718 -2.43706,5.15397 -2.43706,3.28717 -2.03088,3.28718 -2.25654,2.5567 -2.03088,1.82621 -1.6247,3.12484 -2.25654,3.12485 -2.66271,3.12485 -0.27079,2.88135 c -27.89078,28.93528 -66.97399,48.69893 -111.11183,53.89348 l 0.31591,-1.29864 1.44418,-1.62329 2.03089,-0.56816 2.25653,0 1.85036,-2.55669 2.43706,-3.0031 2.66271,-3.53067 2.03089,-2.39437 2.25653,-1.09572 3.06889,-1.82621 2.03088,-2.5567 1.80523,-1.82621 1.39905,-1.09572 1.35393,-3.28718 -0.63183,-3.12485 2.03088,-3.53067 0,-2.71902 2.43706,-2.5567 1.44418,0 1.85036,-2.3132 1.44418,-2.55669 0.81236,-1.17689 2.03088,-2.23204 0.63183,-2.96251 0.81235,-2.19146 -1.6247,-1.82621 -2.25654,-2.02912 -2.66271,-1.42038 -3.47507,-0.9334 -2.43706,-0.36524 -4.06176,1.3798 -4.6936,-0.89281 -3.24941,-0.89282 -2.61758,-0.28407 -2.88837,0 -2.84323,-0.2435 -2.66272,1.01456 -2.84323,2.3132 -2.21141,0 -1.85036,-1.74504 0.18053,-2.92194 0.4513,-1.01456 0,-3.08426 0,-1.8668 -1.26366,-1.1363 -1.98575,-1.6233 -1.1734,-1.54213 -1.98575,0 -3.3848,-0.89282 -4.42281,0 -2.9335,0 -1.89549,0 -2.07601,-2.11029 -2.39193,-1.94795 -3.33967,-1.74505 -3.56533,-0.77106 -1.44418,-2.02913 -2.84324,-2.39436 0,-2.63786 0,-1.74504 -2.03088,0.93339 -0.54157,1.09573 -3.20428,-0.36524 -2.43706,-0.73049 -2.84324,0.9334 -2.84323,1.66388 -2.88837,0.73048 -2.07601,-0.36524 -0.45131,-2.02912 -1.12827,-1.29864 -1.85036,2.02912 -2.2114,0.0812 0,-1.90738 -0.13539,-2.02912 -0.90262,-0.36524 -0.81235,1.09572 -0.45131,1.82621 -1.03801,2.5567 c 0,1.82621 -2.07601,2.7596 -2.07601,2.7596 l 0,-2.39436 0.13539,-2.75961 0,-2.55669 -1.35392,0.20291 -1.6247,1.29864 -0.99288,1.82621 -4.28742,2.39436 -2.03088,1.8668 -1.44418,1.3798 0.40617,2.02912 -0.0451,2.39437 -2.52732,0 -2.66271,-1.50155 -3.24941,1.50155 -3.06889,0 -2.48219,-1.29864 -2.3468,-2.11029 -1.39905,-1.90737 -2.12115,-1.8668 -2.25653,-1.66388 -0.99288,-1.29863 0,-4.05825 0.18053,-3.12485 -0.18053,-1.62329 -3.92637,0 -3.24941,0 -2.66272,-1.37981 -2.25653,-1.25805 -1.03801,-8.11649 -0.40618,-6.2497 0.22566,-2.23203 -2.84324,-1.46097 -2.84323,0.36524 -2.03089,1.09573 -1.44418,2.92194 -0.81235,2.7596 -0.22566,1.09573 -1.6247,2.02912 -1.62471,0.73048 -2.43706,-0.93339 -1.85036,-2.39437 -3.29454,-2.55669 -2.30167,-3.12485 -1.71496,-2.7596 -1.44419,-3.12485 -2.75297,-1.78563 0,-2.63786 0,-4.54523 0.99288,-2.47554 0,-3.97707 0,-2.92194 2.07601,-2.19145 2.7981,-1.66388 3.06889,-0.56815 3.42994,-0.56816 3.24941,0.73049 3.47507,0.97398 0,-1.74505 0,-2.35378 3.33967,-1.09572 4.24228,0.73048 1.62471,0.73048 2.3468,0.73049 1.6247,0.73048 1.7601,1.82621 1.39906,0.56815 -0.27079,1.54214 0,1.82621 1.80523,2.71902 2.12115,3.85532 1.94062,2.55671 1.94062,0 2.16627,0 0.22566,-2.02913 -0.63183,-3.36834 -0.81236,-2.80019 -0.81235,-2.02912 -2.03088,-2.96252 -0.63183,-4.05824 0.63183,-1.70446 2.03088,-3.65242 1.85036,-3.693 0.63183,-1.82621 1.85036,-1.82621 1.03801,-1.33923 2.43706,-3.61183 1.038,-4.38291 0.40618,-2.35378 -1.03801,-2.51611 -1.6247,-1.58271 -0.81236,-1.09573 0.0451,-1.17689 2.21141,0 2.66271,-1.54213 0.99288,-1.78563 0.49644,-1.98854 0,-2.27262 1.94062,-1.17689 1.94062,0 1.94062,0 1.85036,0 1.80523,-2.0697 -0.22566,-2.75961 0,-2.80019 1.44419,-2.7596 2.34679,-1.70446 4.55821,-3.61184 c 0.81235,-1.46097 1.85036,-1.78563 1.85036,-1.78563 l -0.40618,2.63786 1.03801,1.86679 0.4513,1.98854 1.39906,0 1.44418,-2.0697 1.44418,-1.78563 1.62471,-1.90738 2.66271,-1.86679 2.66271,-1.29864 1.85036,-1.66388 c 1.62471,-1.09572 0.81236,-1.90737 0.81236,-1.90737 l -1.21853,-2.80019 -1.44419,-0.48699 -1.6247,1.86679 -0.27079,2.47553 -2.16627,0 -3.24941,-1.21747 -2.03089,-1.29864 -1.21852,-3.0031 1.44418,-1.50155 0.63183,-1.50156 0.81235,-1.09572 2.66271,-0.36524 c 2.43706,0 2.84324,-2.19146 2.84324,-2.19146 l -3.29454,0.20292 -3.47507,0.93339 -2.48219,0.20291 -2.48219,0.9334 -2.9335,2.19145 -1.85035,1.46098 -2.70785,2.35378 0,-1.82621 0.85749,-2.31321 3.9715,-2.84077 1.89549,-1.09572 3.06889,-0.73049 3.42993,0 2.75298,0 1.12827,-1.74504 3.15915,0 2.03088,-2.47553 2.88836,-2.84077 1.71497,-0.20292 3.02376,-0.6899 1.94062,-0.16233 c 0.81235,-1.66388 -2.43706,-4.86989 -2.43706,-4.86989 l -1.44418,-3.693 -2.88837,-2.55669 c 0,0 -2.61758,-1.29864 -2.84323,-1.82621 -0.22566,-0.52757 -3.70072,-2.75961 -3.70072,-2.75961 -0.22566,-2.39436 -1.62471,-2.7596 -1.85036,-4.22057 -0.22565,-1.46097 -1.85036,-4.05825 -1.85036,-4.05825 -1.44418,-4.42348 -3.88124,-3.65242 -3.88124,-3.65242 l -1.08314,1.29864 -1.12827,1.82621 -2.88836,1.29864 c -1.21853,1.29864 -3.02376,-0.28408 -3.02376,-0.28408 l 0,-3.73358 c 3.42993,-0.73049 2.43706,-2.75961 2.43706,-2.75961 l -3.38481,-0.93339 -3.20428,-2.06971 c -1.62471,-1.70446 -5.50595,-0.6899 -5.50595,-0.6899 l -2.52732,0.6899 -1.48931,2.06971 -1.03801,2.19145 0.40618,1.82621 -0.63183,4.42349 0.18052,3.49009 1.21853,2.7596 -0.63183,2.92194 -1.26366,1.82621 -1.12827,2.19145 -4.28742,2.19145 -1.66983,2.92193 0,4.05825 0.13539,1.82621 c -0.81235,1.46096 -1.62471,1.46096 -1.62471,1.46096 l -1.66983,-2.55669 1.038,-5.84387 -1.39905,-2.15087 -3.06889,-1.94795 -2.66271,-1.98854 -2.57246,-2.11029 -3.33967,0 -2.52732,-1.86679 0.0903,-5.07281 c -0.81235,-4.42349 5.09977,-7.386 5.09977,-7.386 0.81236,-1.46097 2.84324,-2.23204 2.84324,-2.23204 l 2.66272,-1.86679 1.85036,-1.13631 1.038,-2.35378 2.03088,-1.82621 2.43706,-0.56815 1.03801,1.82621 1.44418,0.93339 2.43706,-0.73048 3.88124,-1.46097 0.63183,-2.19145 -1.038,-3.65242 c -1.85036,0 -0.81236,-1.82621 -0.81236,-1.82621 l 3.02376,-1.46097 3.11402,-1.66388 2.25654,-2.92193 0.40617,-2.19146 1.03801,-2.39436 3.06889,-0.77107 1.21853,2.06971 -0.22565,2.23203 -0.81236,1.09573 2.03089,1.66388 -2.43706,3.49009 -1.44419,1.82621 -2.03088,0.73048 -2.25653,1.29864 0.40617,1.29864 1.85036,0.93339 2.43706,0.56816 1.21853,1.86679 0.81235,2.27262 1.85036,1.13631 2.43706,1.98853 3.29454,0 3.24942,0.60874 0.40617,-1.54213 -2.43706,-2.19145 -1.44418,-1.74505 0.81235,-0.77106 1.98576,1.66388 1.71496,0 0.40618,-2.59728 -1.12827,-3.57126 -1.53444,0 -1.85036,-1.78562 0.40617,-1.29864 1.62471,0 1.44418,1.3798 1.85036,1.70446 0.99288,0 1.038,-1.82621 -0.22565,-3.53067 0.81235,-1.13631 0.81236,-0.93339 -2.66272,-2.39437 -2.66271,-2.02912 -2.07601,-1.09572 0.18052,-2.39437 1.7601,-2.23203 -1.26366,-2.11029 -3.06889,-1.86679 0,-2.0697 -2.75297,-1.29864 -4.51308,-0.20291 -3.06888,0.56815 -3.92638,-0.9334 -3.24941,0.56816 -2.03088,-1.50155 0,-2.5567 -1.53445,0.20292 -2.25653,2.19145 -3.02376,1.29864 -2.25654,0.56815 -2.48219,1.90737 -0.90261,1.78563 -2.07601,1.33922 -3.61046,2.11029 0,0.97398 -0.94775,1.29863 -1.30879,-1.29863 -1.30879,-1.66388 -2.12115,-1.42039 -1.12826,-0.81165 2.03088,-1.29863 1.80523,-1.66388 1.44418,-1.21748 0,-1.90737 -1.7601,-1.01456 -1.08314,-0.81165 c 25.90504,-13.22988 55.9621,-20.73763 87.86952,-20.73763 16.38245,0 32.3136,2.0697 47.38726,5.80329 l -1.30879,0.73048 -4.5582,1.21748 -2.25654,0 -2.07601,-0.81165 -1.12827,0.85223 -2.21141,0.48699 -2.39192,0.48699 0,1.17689 2.34679,1.21747 3.38481,1.09573 2.25653,1.09572 0.63183,1.70447 2.07602,1.05514 2.03088,0.20291 3.47506,1.09573 3.47507,1.29864 2.25654,2.39436 2.66271,1.29864 2.43706,0.20291 2.66271,1.66388 2.84324,2.75961 2.03088,2.47552 2.84323,2.19146 2.03089,2.27261 2.66271,1.98854 2.88836,0 1.48932,0 2.16627,1.98854 2.66272,2.84077 2.48219,1.33922 2.43705,0 0.36105,-2.0697 -0.40618,-1.54213 0.63183,-2.06971 1.85036,0.16233 0.81236,2.55669 -0.22566,2.75961 1.21853,1.29864 3.42994,1.46097 1.7601,1.29863 2.12114,1.29864 1.71497,1.46097 0,1.82621 0.31591,2.96252 0.5867,1.66388 1.03801,1.29864 2.43706,1.78562 0,2.84077 1.94062,2.51612 0,2.80018 -0.94775,2.92194 -1.53444,2.39437 0,3.08426 3.42993,0 1.66984,1.33922 2.25654,0 2.93349,0 0.94775,1.90738 1.12827,2.71902 2.12114,2.39436 1.03801,4.17999 -3.88125,1.98854 -2.30166,0 -1.35392,1.13631 -0.22566,1.58271 1.62471,2.51612 1.85036,3.65242 2.66271,2.7596 2.43706,3.12485 1.21853,3.32777 0.81235,2.63786 1.62471,2.3132 2.66271,1.54213 3.29454,0 3.06889,-2.19145 1.62471,-3.57126 0.22565,-2.88135 0,-1.05515 -0.63183,-1.13631 1.7601,-2.19145 -0.76722,-1.82621 -1.39906,-1.82621 -0.99287,-2.39437 -0.40618,-2.55669 -0.18052,-4.42349 -1.44418,-0.93339 -1.44419,-0.73049 0.63183,-2.55669 1.62471,-1.09572 0.22565,-2.02912 -0.22565,-1.46097 1.21853,-0.73049 1.44418,1.09573 1.85036,2.19145 3.24941,1.29864 2.43706,1.46097 2.03089,2.02912 2.25653,2.92193 2.03088,2.19145 2.03089,-0.20291 -1.03801,-2.55669 -2.30167,-4.22057 2.3468,1.8262 1.39905,2.39437 1.44419,1.82621 0,1.74504 1.76009,0.2435 1.1734,-2.5567 0,-2.96252 0,-2.67843 c 3.92638,5.88445 7.89788,12.82404 10.56059,19.3984 l -2.25653,0 -1.48932,0 -2.43706,0.20291 0,2.63787 z m -233.732,78.52702 2.03088,2.84076 2.16627,0 0.99288,-1.25805 0,-1.33922 -1.26366,-0.52757 -1.53444,-0.32466 -1.12827,0 -1.26366,0.60874 z m 4.42281,6.37144 -1.71497,0 -1.39905,-0.36524 -1.08314,0.36524 0,1.29864 1.21853,1.33922 1.44418,1.33922 2.21141,0 0,-1.58271 0,-1.05515 -0.67696,-1.33922 z m 7.13065,21.58986 -0.76722,-1.42038 -2.9335,-0.32466 -1.53444,0.32466 -1.12827,1.42038 0,0.89281 1.71497,1.74505 2.70784,0 1.48931,0 0.49644,-1.66388 0,-0.97398 z m 5.867,-4.42348 1.48931,-1.98854 -1.1734,-0.85224 -1.89549,-0.32466 -1.1734,-0.81164 -1.30879,-0.64932 -1.57957,-1.09573 -2.88837,-0.77107 -2.30167,-0.64931 -1.1734,-1.46097 -1.17339,-1.25806 -2.61759,-0.56815 -2.88836,-0.64932 -3.88124,0 -3.42994,0 -3.02376,0.97398 -1.7601,1.33922 -1.57958,0.6899 0,0.97398 1.57958,0.85223 2.57245,-1.09573 2.57246,-0.64932 2.07601,0 2.39193,1.33922 1.53444,0 4.1069,1.50156 2.03088,1.09572 1.89549,1.25806 2.43706,1.66388 0.99288,1.05514 1.71496,0 2.03089,-0.73048 2.43705,0.73048 1.98576,0 z m 14.80287,0.12174 c -1.89549,0.0406 -2.88836,-0.40582 -2.88836,-0.40582 l -2.03089,-1.01456 -3.02375,0 c 0,0 -1.85036,-0.52757 -2.84324,-0.32466 0,0 -4.01663,-0.20291 -2.03088,1.66388 l 0,1.33922 -0.85749,1.21747 -0.76722,1.05514 1.21853,1.21748 2.3468,0 3.42993,0 2.43706,0 2.39193,-2.19145 2.03088,0 1.7601,-0.97398 c -0.0451,-0.0406 0.67696,-1.6233 -1.1734,-1.58272 z m 8.71023,2.51611 -0.67696,-0.60873 -0.76722,-0.28408 -2.9335,0 0,1.33922 2.21141,1.74505 2.2114,0 0,-2.19146 z m 11.32781,0.97398 -0.49644,-0.52757 -1.57957,-0.44641 -0.94775,0 -1.94062,-0.89281 0,1.33922 1.94062,1.09573 3.02376,-0.56816 z m 2.3468,5.19455 1.48931,0 -0.72209,-0.97397 -1.12827,-0.77107 -1.08313,0 -0.76722,0.77107 1.12826,0.97397 1.08314,0 z m 3.74585,7.50776 -1.44418,-1.17689 -1.7601,0.52757 0,1.94795 2.9335,0 0.27078,-1.29863 z m 0.0451,-3.73359 -0.85748,-1.13631 -1.44419,0 -1.08313,1.13631 1.08313,1.05514 1.48932,0 0.81235,-1.05514 z m 0.13539,-118.17607 -1.08313,-1.42039 -1.62471,-1.54213 0.22565,-1.29864 -0.27078,-1.54213 -0.54157,-0.89281 -1.30879,-0.12175 -2.52732,-0.60874 -0.76722,-0.73048 -0.27079,-1.05515 -1.53444,0 -1.35392,-0.77106 -1.57958,0.77106 0,2.19146 c 0,0 0.63183,2.23203 -1.35392,4.05824 l -1.08314,1.94796 0,2.35378 c 0,0 -0.99287,2.63787 0,2.63787 l 2.43706,0 c 0,0 1.89549,-3.69301 5.50595,-2.11029 l 1.71497,1.33922 1.71496,0.77107 3.24942,0 0.49643,-1.33923 0,-2.63786 z m 4.91925,123.20829 -1.44418,-1.3798 -0.31592,1.25806 0.7221,1.86679 0.99287,0 0,-1.74505 z m -14.89311,-216.06091 0.18053,-0.89282 3.29454,0 2.43706,-0.52757 2.03088,0.48699 4.06177,-0.24349 4.28741,0.32466 4.28742,0.16233 3.74585,-0.56816 2.97863,-1.98854 -7.13065,-0.77106 -1.85036,0.73048 -5.68647,0.40582 -8.16866,-0.93339 -2.84324,-1.21747 -2.43706,-0.40583 -2.25654,0.73048 -1.6247,2.51612 -2.84324,0 -4.06176,2.51611 -2.25654,0.60873 -3.47506,1.05515 -4.51308,2.19145 -4.51307,1.29864 c -5.50595,-0.20291 -4.28742,3.12485 -5.91212,2.7596 -1.62471,-0.36524 -3.47507,2.59728 -4.06177,2.59728 -0.63183,0 5.7316,1.90737 5.7316,1.90737 l 1.44419,-0.81164 4.46794,0 5.46082,-0.60874 3.83611,-3.2466 1.71497,0.12175 1.57957,-1.58271 0,0.77106 2.43706,-0.77106 0,1.42038 0.99288,2.11029 0,1.66388 1.44418,3.12485 2.75297,2.39436 -1.39905,1.70446 1.1734,2.51611 c 4.91925,1.09573 0.94774,5.3163 0.94774,5.3163 l 0,2.96252 1.85036,2.02912 2.16628,4.78873 c 0,0 3.92637,4.78873 4.96438,6.29028 1.038,1.50155 7.17578,3.9365 7.17578,3.9365 l 2.43706,1.58271 1.98575,0 c 2.97863,0 2.52732,-2.0697 2.52732,-2.0697 -1.21853,-2.39437 -0.22565,-17.16638 -0.22565,-17.16638 l 3.47507,-3.0031 c -1.39906,-0.93339 -1.35393,-2.96251 -0.31592,-2.80019 1.08314,0.20292 4.28742,-5.35688 4.28742,-5.35688 l 0,-2.63785 -0.27079,0 c 1.03801,-3.97708 -5.41568,-4.34233 -5.41568,-4.34233 0.22565,-2.39436 -4.15203,-3.12484 -4.15203,-3.12484 l 1.21853,-1.6233 -1.44418,-1.50155 c 0,0 -3.88124,0.16233 -4.51307,-1.09573 -0.63183,-1.25805 -3.88125,-1.66388 -3.88125,-1.66388 l -4.51307,-1.17689 -3.61046,-0.89281 z m 71.03576,24.7147 -1.44418,-1.17689 -1.03801,-1.46097 -4.06177,-2.19145 c 0,0 -3.11402,-1.90737 -4.51307,0 0,0 -0.40617,1.09573 0,2.19145 0,0 -4.28742,-1.09572 -4.91925,0 0,0 -4.28741,1.66388 1.03801,2.75961 0,0 2.25654,2.75961 3.88124,2.75961 0,0 0.22566,1.82621 4.28742,2.02912 0.0451,-0.0406 7.58196,1.6233 6.76961,-4.91048 z m 59.43716,27.06849 -0.99288,-1.78563 c 0,0 -2.43706,-0.20291 -2.61758,-2.02912 l -0.85748,-1.33922 -1.48932,0 -1.26366,-1.94796 -1.57957,-1.1363 -1.62471,-0.77107 -2.88836,-1.6233 -2.88837,-1.46097 -1.1734,-1.46096 -2.30167,-1.42039 -3.15915,-1.82621 -2.30166,-0.89281 -1.89549,-0.64932 c 0,0 -2.61758,-2.06971 -2.88837,1.54213 l -1.30879,1.29864 0.5867,1.46097 2.16627,0.77106 4.01664,1.54214 1.21853,1.05514 0.18052,3.24659 0,1.8668 0.63183,2.23203 -0.0451,2.39436 1.66984,1.54214 2.16627,0 1.80523,1.58271 1.57958,1.25806 0.5867,2.0697 1.89549,0.81165 1.038,0 0.5867,-2.0697 c 0,0 3.61046,-3.49009 4.78386,0.16233 0,0 -0.85749,1.6233 0,1.78563 0.85748,0.12174 2.30166,1.01456 2.30166,1.01456 l 1.89549,-0.81165 1.57958,-2.88136 c -0.13539,-0.0406 2.03088,-1.05514 0.5867,-3.53067 z"
       inkscape:connector-curvature="0"
       style="fill:#003399;filter:url(#filter4382)"
       transform="matrix(1.0058418,0,0,0.93458829,-2.0719784,17.677763)" />
    <text
       xml:space="preserve"
       style="font-style:normal;font-variant:normal;font-weight:normal;font-stretch:normal;font-size:28.75px;line-height:125%;font-family:sans-serif;-inkscape-font-specification:'sans-serif, Normal';text-align:start;letter-spacing:0px;word-spacing:0px;writing-mode:lr-tb;text-anchor:start;fill:#0f2a61;fill-opacity:1;stroke:none;stroke-width:1px;stroke-linecap:butt;stroke-linejoin:miter;stroke-opacity:1"
       x="369.71426"
       y="275.21936"
       id="text4290"
       sodipodi:linespacing="125%"><tspan
         sodipodi:role="line"
         id="tspan4292"
         x="369.71426"
         y="275.21936"><tspan
           style="font-style:italic;font-variant:normal;font-weight:normal;font-stretch:normal;font-size:87.5px;line-height:125%;font-family:'Lucida Calligraphy';-inkscape-font-specification:'Lucida Calligraphy, Italic';text-align:start;writing-mode:lr-tb;text-anchor:start;fill:#ffffff;fill-opacity:1"
           id="tspan4296">S</tspan><tspan
           id="tspan4509"
           style="font-style:normal;font-variant:normal;font-weight:normal;font-stretch:normal;font-size:62.5px;line-height:125%;font-family:Geneva;-inkscape-font-specification:'Geneva, Normal';text-align:start;writing-mode:lr-tb;text-anchor:start;fill:#ffffff;fill-opacity:1">pa</tspan><tspan
           style="font-style:normal;font-variant:normal;font-weight:normal;font-stretch:normal;font-size:62.5px;line-height:125%;font-family:Geneva;-inkscape-font-specification:'Geneva, Normal';text-align:start;writing-mode:lr-tb;text-anchor:start;fill:#0f2a61;fill-opacity:1"
           id="tspan4294">tial</tspan></tspan></text>
    <text
       xml:space="preserve"
       style="font-style:normal;font-variant:normal;font-weight:normal;font-stretch:normal;font-size:50px;line-height:125%;font-family:Geneva;-inkscape-font-specification:'Geneva, Normal';text-align:start;letter-spacing:0px;word-spacing:0px;writing-mode:lr-tb;text-anchor:start;fill:#0f2a61;fill-opacity:1;stroke:none;stroke-width:1px;stroke-linecap:butt;stroke-linejoin:miter;stroke-opacity:1"
       x="303.24728"
       y="324.85977"
       id="text4290-5"
       sodipodi:linespacing="125%"><tspan
         sodipodi:role="line"
         id="tspan4322"
         x="303.24728"
         y="324.85977"><tspan
           style="font-style:italic;font-variant:normal;font-weight:normal;font-stretch:normal;font-size:87.5px;line-height:125%;font-family:'Lucida Calligraphy';-inkscape-font-specification:'Lucida Calligraphy, Italic';text-align:start;writing-mode:lr-tb;text-anchor:start;fill:#ffffff;fill-opacity:1"
           id="tspan4324">E</tspan><tspan
           style="font-style:normal;font-variant:normal;font-weight:normal;font-stretch:normal;font-size:62.5px;line-height:125%;font-family:Geneva;-inkscape-font-specification:'Geneva, Normal';text-align:start;writing-mode:lr-tb;text-anchor:start;fill:#ffffff;fill-opacity:1"
           id="tspan4328">pid</tspan><tspan
           style="font-style:normal;font-variant:normal;font-weight:normal;font-stretch:normal;font-size:62.5px;line-height:125%;font-family:Geneva;-inkscape-font-specification:'Geneva, Normal';text-align:start;writing-mode:lr-tb;text-anchor:start"
           id="tspan4511"><tspan
   style="fill:#ffffff"
   id="tspan4513">e</tspan>miology <tspan
   style="font-style:italic;font-variant:normal;font-weight:normal;font-stretch:normal;font-size:87.5px;line-height:125%;font-family:'Lucida Calligraphy';-inkscape-font-specification:'Lucida Calligraphy, Italic';text-align:start;writing-mode:lr-tb;text-anchor:start"
   id="tspan4239">L</tspan>ab</tspan></tspan></text>
    <text
       xml:space="preserve"
       style="font-style:normal;font-variant:normal;font-weight:normal;font-stretch:normal;font-size:28.75px;line-height:125%;font-family:sans-serif;-inkscape-font-specification:'sans-serif, Normal';text-align:start;letter-spacing:0px;word-spacing:0px;writing-mode:lr-tb;text-anchor:start;fill:#000000;fill-opacity:1;stroke:none;stroke-width:1px;stroke-linecap:butt;stroke-linejoin:miter;stroke-opacity:1"
       x="147.48227"
       y="544.25549"
       id="text4330"
       sodipodi:linespacing="125%"><tspan
         sodipodi:role="line"
         id="tspan4332"
         x="147.48227"
         y="544.25549" /></text>
    <path
       id="path4281-3"
       d="m 366.99808,442.44078 3.29454,0.68991 c -3.20428,0.16233 -6.40856,0.28407 -9.65798,0.28407 -98.33984,0 -178.08583,-71.628 -178.08583,-160.05714 0,-38.10691 14.80288,-72.72374 39.53452,-100.23863 l 0.0903,2.35378 1.66983,0 1.62471,-2.71903 3.47506,-2.43494 1.21853,-1.90738 2.03089,-2.80019 0.63183,1.46097 0.99287,1.29864 -0.40617,1.29864 -2.88837,3.28718 -1.89549,2.19145 -1.30879,3.85533 -1.66984,2.5567 -3.02376,1.78562 0,2.23204 -1.35392,2.02912 -0.85748,2.39436 -0.94775,2.19146 -1.1734,1.66388 -1.6247,2.55669 -0.99288,4.22057 -1.6247,2.92193 -1.85036,3.28718 -1.44419,4.05825 -0.22565,2.7596 -0.22565,2.19145 -1.26366,1.82621 -1.48932,2.39438 -3.33967,6.98018 -2.25654,5.88445 -3.29454,7.58892 0,5.27571 0,5.03223 1.44418,3.12484 1.39906,4.05825 0.5867,3.65242 -1.48932,2.27261 0,1.74505 0,2.19145 0,2.59728 1.80523,2.71902 0.85748,4.46407 1.7601,3.44951 0,6.16853 0,5.23513 2.3468,3.28718 1.66984,3.28718 1.6247,3.49008 1.85036,2.39437 0.81236,2.39436 2.25653,1.09573 1.44418,1.66388 2.03089,0.56815 -2.03089,-4.05824 -2.48219,-5.15398 -1.66983,-4.58581 -0.85749,-2.7596 -0.90261,-3.85533 -1.03801,-2.92194 -2.16627,-2.7596 0,-3.08427 0,-2.63786 1.6247,1.46097 1.03801,3.12485 0.76722,2.88135 0,3.0031 1.30879,4.05824 1.57958,4.05825 1.89549,4.58581 2.25654,4.22058 1.66983,3.28718 1.21853,2.7596 1.21853,3.28718 2.03088,3.49009 1.85036,1.66388 2.43706,2.19145 1.44419,1.29864 2.84323,3.12485 1.62471,2.39436 2.03088,2.39437 2.84324,1.66388 3.47506,1.1363 3.06889,0.81165 3.06889,0.77107 2.66271,1.29864 4.06177,0 c 0,0 2.66271,2.55669 3.24941,2.92193 0.5867,0.36524 3.24941,1.37981 3.24941,1.37981 l 4.06177,1.94795 c 0,0 2.84323,0.16233 3.88124,0.16233 1.038,0 1.44418,0.52757 1.44418,0.52757 l 2.03088,1.66388 2.43707,2.39437 2.84323,3.28718 2.43706,2.02912 2.03088,1.82621 2.25654,0.73048 2.66271,1.46097 0.81235,1.29864 2.43706,-0.56816 1.85036,0.56816 2.03089,1.82621 1.21853,0.73048 1.44418,-0.56815 1.44418,-1.66388 0.63183,-1.66388 1.21853,0.73048 3.65559,3.12485 1.21853,1.46097 0.40618,2.19145 1.39905,1.82621 0.36104,2.02912 0.0903,2.55669 -1.03801,1.09573 -1.62471,1.98854 0,1.33922 -0.13539,1.29864 -0.45131,1.82621 1.08314,3.49009 2.48219,3.28717 0.40618,1.82621 1.038,2.19146 1.21853,2.7596 2.25654,1.09573 2.66271,1.46097 0.81235,1.09572 2.43706,2.19145 3.88125,3.28718 3.06888,1.82621 4.06177,2.39437 4.28742,1.8262 3.88124,0.73049 2.66271,1.46097 2.43706,2.02912 3.06889,1.29864 3.06889,2.02912 2.66271,2.92193 1.85036,2.19146 1.21853,1.82621 1.89549,2.39436 2.39193,2.19145 3.06889,1.66388 3.61046,3.36834 z m 153.71523,-212.48965 0,2.19145 2.43706,2.27262 -1.35392,1.46096 -1.35392,-1.66388 -2.9335,-1.8262 -2.93349,-0.9334 -0.99288,-1.66388 -0.94775,-2.5567 -0.94774,-3.28718 -3.20428,-4.42349 -1.03801,2.02913 -1.08314,1.29863 -1.94062,1.66388 -2.66271,2.02913 -1.57957,3.65242 0,2.39437 -0.90262,2.39436 -1.53444,0.9334 -2.79811,0.89281 -1.39905,1.82621 c 0,0 -2.03088,3.85533 0,8.44115 0,0 -3.02376,6.41202 -0.90261,7.50775 2.12114,1.09573 0.67696,5.3163 0.67696,5.3163 l 1.57957,2.55669 -1.53444,1.46097 c 0,0 -5.05464,4.22057 -3.15915,8.80639 l -0.31592,3.53067 0,2.96252 -0.99287,3.693 0,2.02912 0,3.53068 0.99287,4.86989 0,2.15087 2.03088,2.23203 -0.31591,2.5567 0.27078,2.39436 0.63183,2.19145 -1.038,1.66388 -0.49644,2.02912 0.85748,2.7596 -0.94774,2.92195 0,3.24659 -0.49644,1.70446 0,2.23204 2.57245,1.42038 1.71497,2.39437 0.27078,2.19145 1.85036,1.82621 1.85036,1.09573 0.40618,2.59727 0.40617,2.59728 2.25654,2.27261 1.03801,2.67845 3.24941,2.84077 2.48219,0 2.66271,-2.96252 2.03088,-3.73359 1.85036,-2.63786 0.18053,-1.66388 2.30166,-0.20291 2.75298,-2.59727 2.2114,-1.09573 1.1734,2.75961 -0.90261,3.65242 -3.38481,5.3163 -2.07601,3.28717 0,3.36835 -0.63183,5.11338 -1.94062,4.58582 -1.7601,3.28718 -2.43706,5.15397 -2.43706,3.28717 -2.03088,3.28718 -2.25654,2.5567 -2.03088,1.82621 -1.6247,3.12484 -2.25654,3.12485 -2.66271,3.12485 -0.27079,2.88135 c -27.89078,28.93528 -66.97399,48.69893 -111.11183,53.89348 l 0.31591,-1.29864 1.44418,-1.62329 2.03089,-0.56816 2.25653,0 1.85036,-2.55669 2.43706,-3.0031 2.66271,-3.53067 2.03089,-2.39437 2.25653,-1.09572 3.06889,-1.82621 2.03088,-2.5567 1.80523,-1.82621 1.39905,-1.09572 1.35393,-3.28718 -0.63183,-3.12485 2.03088,-3.53067 0,-2.71902 2.43706,-2.5567 1.44418,0 1.85036,-2.3132 1.44418,-2.55669 0.81236,-1.17689 2.03088,-2.23204 0.63183,-2.96251 0.81235,-2.19146 -1.6247,-1.82621 -2.25654,-2.02912 -2.66271,-1.42038 -3.47507,-0.9334 -2.43706,-0.36524 -4.06176,1.3798 -4.6936,-0.89281 -3.24941,-0.89282 -2.61758,-0.28407 -2.88837,0 -2.84323,-0.2435 -2.66272,1.01456 -2.84323,2.3132 -2.21141,0 -1.85036,-1.74504 0.18053,-2.92194 0.4513,-1.01456 0,-3.08426 0,-1.8668 -1.26366,-1.1363 -1.98575,-1.6233 -1.1734,-1.54213 -1.98575,0 -3.3848,-0.89282 -4.42281,0 -2.9335,0 -1.89549,0 -2.07601,-2.11029 -2.39193,-1.94795 -3.33967,-1.74505 -3.56533,-0.77106 -1.44418,-2.02913 -2.84324,-2.39436 0,-2.63786 0,-1.74504 -2.03088,0.93339 -0.54157,1.09573 -3.20428,-0.36524 -2.43706,-0.73049 -2.84324,0.9334 -2.84323,1.66388 -2.88837,0.73048 -2.07601,-0.36524 -0.45131,-2.02912 -1.12827,-1.29864 -1.85036,2.02912 -2.2114,0.0812 0,-1.90738 -0.13539,-2.02912 -0.90262,-0.36524 -0.81235,1.09572 -0.45131,1.82621 -1.03801,2.5567 c 0,1.82621 -2.07601,2.7596 -2.07601,2.7596 l 0,-2.39436 0.13539,-2.75961 0,-2.55669 -1.35392,0.20291 -1.6247,1.29864 -0.99288,1.82621 -4.28742,2.39436 -2.03088,1.8668 -1.44418,1.3798 0.40617,2.02912 -0.0451,2.39437 -2.52732,0 -2.66271,-1.50155 -3.24941,1.50155 -3.06889,0 -2.48219,-1.29864 -2.3468,-2.11029 -1.39905,-1.90737 -2.12115,-1.8668 -2.25653,-1.66388 -0.99288,-1.29863 0,-4.05825 0.18053,-3.12485 -0.18053,-1.62329 -3.92637,0 -3.24941,0 -2.66272,-1.37981 -2.25653,-1.25805 -1.03801,-8.11649 -0.40618,-6.2497 0.22566,-2.23203 -2.84324,-1.46097 -2.84323,0.36524 -2.03089,1.09573 -1.44418,2.92194 -0.81235,2.7596 -0.22566,1.09573 -1.6247,2.02912 -1.62471,0.73048 -2.43706,-0.93339 -1.85036,-2.39437 -3.29454,-2.55669 -2.30167,-3.12485 -1.71496,-2.7596 -1.44419,-3.12485 -2.75297,-1.78563 0,-2.63786 0,-4.54523 0.99288,-2.47554 0,-3.97707 0,-2.92194 2.07601,-2.19145 2.7981,-1.66388 3.06889,-0.56815 3.42994,-0.56816 3.24941,0.73049 3.47507,0.97398 0,-1.74505 0,-2.35378 3.33967,-1.09572 4.24228,0.73048 1.62471,0.73048 2.3468,0.73049 1.6247,0.73048 1.7601,1.82621 1.39906,0.56815 -0.27079,1.54214 0,1.82621 1.80523,2.71902 2.12115,3.85532 1.94062,2.55671 1.94062,0 2.16627,0 0.22566,-2.02913 -0.63183,-3.36834 -0.81236,-2.80019 -0.81235,-2.02912 -2.03088,-2.96252 -0.63183,-4.05824 0.63183,-1.70446 2.03088,-3.65242 1.85036,-3.693 0.63183,-1.82621 1.85036,-1.82621 1.03801,-1.33923 2.43706,-3.61183 1.038,-4.38291 0.40618,-2.35378 -1.03801,-2.51611 -1.6247,-1.58271 -0.81236,-1.09573 0.0451,-1.17689 2.21141,0 2.66271,-1.54213 0.99288,-1.78563 0.49644,-1.98854 0,-2.27262 1.94062,-1.17689 1.94062,0 1.94062,0 1.85036,0 1.80523,-2.0697 -0.22566,-2.75961 0,-2.80019 1.44419,-2.7596 2.34679,-1.70446 4.55821,-3.61184 c 0.81235,-1.46097 1.85036,-1.78563 1.85036,-1.78563 l -0.40618,2.63786 1.03801,1.86679 0.4513,1.98854 1.39906,0 1.44418,-2.0697 1.44418,-1.78563 1.62471,-1.90738 2.66271,-1.86679 2.66271,-1.29864 1.85036,-1.66388 c 1.62471,-1.09572 0.81236,-1.90737 0.81236,-1.90737 l -1.21853,-2.80019 -1.44419,-0.48699 -1.6247,1.86679 -0.27079,2.47553 -2.16627,0 -3.24941,-1.21747 -2.03089,-1.29864 -1.21852,-3.0031 1.44418,-1.50155 0.63183,-1.50156 0.81235,-1.09572 2.66271,-0.36524 c 2.43706,0 2.84324,-2.19146 2.84324,-2.19146 l -3.29454,0.20292 -3.47507,0.93339 -2.48219,0.20291 -2.48219,0.9334 -2.9335,2.19145 -1.85035,1.46098 -2.70785,2.35378 0,-1.82621 0.85749,-2.31321 3.9715,-2.84077 1.89549,-1.09572 3.06889,-0.73049 3.42993,0 2.75298,0 1.12827,-1.74504 3.15915,0 2.03088,-2.47553 2.88836,-2.84077 1.71497,-0.20292 3.02376,-0.6899 1.94062,-0.16233 c 0.81235,-1.66388 -2.43706,-4.86989 -2.43706,-4.86989 l -1.44418,-3.693 -2.88837,-2.55669 c 0,0 -2.61758,-1.29864 -2.84323,-1.82621 -0.22566,-0.52757 -3.70072,-2.75961 -3.70072,-2.75961 -0.22566,-2.39436 -1.62471,-2.7596 -1.85036,-4.22057 -0.22565,-1.46097 -1.85036,-4.05825 -1.85036,-4.05825 -1.44418,-4.42348 -3.88124,-3.65242 -3.88124,-3.65242 l -1.08314,1.29864 -1.12827,1.82621 -2.88836,1.29864 c -1.21853,1.29864 -3.02376,-0.28408 -3.02376,-0.28408 l 0,-3.73358 c 3.42993,-0.73049 2.43706,-2.75961 2.43706,-2.75961 l -3.38481,-0.93339 -3.20428,-2.06971 c -1.62471,-1.70446 -5.50595,-0.6899 -5.50595,-0.6899 l -2.52732,0.6899 -1.48931,2.06971 -1.03801,2.19145 0.40618,1.82621 -0.63183,4.42349 0.18052,3.49009 1.21853,2.7596 -0.63183,2.92194 -1.26366,1.82621 -1.12827,2.19145 -4.28742,2.19145 -1.66983,2.92193 0,4.05825 0.13539,1.82621 c -0.81235,1.46096 -1.62471,1.46096 -1.62471,1.46096 l -1.66983,-2.55669 1.038,-5.84387 -1.39905,-2.15087 -3.06889,-1.94795 -2.66271,-1.98854 -2.57246,-2.11029 -3.33967,0 -2.52732,-1.86679 0.0903,-5.07281 c -0.81235,-4.42349 5.09977,-7.386 5.09977,-7.386 0.81236,-1.46097 2.84324,-2.23204 2.84324,-2.23204 l 2.66272,-1.86679 1.85036,-1.13631 1.038,-2.35378 2.03088,-1.82621 2.43706,-0.56815 1.03801,1.82621 1.44418,0.93339 2.43706,-0.73048 3.88124,-1.46097 0.63183,-2.19145 -1.038,-3.65242 c -1.85036,0 -0.81236,-1.82621 -0.81236,-1.82621 l 3.02376,-1.46097 3.11402,-1.66388 2.25654,-2.92193 0.40617,-2.19146 1.03801,-2.39436 3.06889,-0.77107 1.21853,2.06971 -0.22565,2.23203 -0.81236,1.09573 2.03089,1.66388 -2.43706,3.49009 -1.44419,1.82621 -2.03088,0.73048 -2.25653,1.29864 0.40617,1.29864 1.85036,0.93339 2.43706,0.56816 1.21853,1.86679 0.81235,2.27262 1.85036,1.13631 2.43706,1.98853 3.29454,0 3.24942,0.60874 0.40617,-1.54213 -2.43706,-2.19145 -1.44418,-1.74505 0.81235,-0.77106 1.98576,1.66388 1.71496,0 0.40618,-2.59728 -1.12827,-3.57126 -1.53444,0 -1.85036,-1.78562 0.40617,-1.29864 1.62471,0 1.44418,1.3798 1.85036,1.70446 0.99288,0 1.038,-1.82621 -0.22565,-3.53067 0.81235,-1.13631 0.81236,-0.93339 -2.66272,-2.39437 -2.66271,-2.02912 -2.07601,-1.09572 0.18052,-2.39437 1.7601,-2.23203 -1.26366,-2.11029 -3.06889,-1.86679 0,-2.0697 -2.75297,-1.29864 -4.51308,-0.20291 -3.06888,0.56815 -3.92638,-0.9334 -3.24941,0.56816 -2.03088,-1.50155 0,-2.5567 -1.53445,0.20292 -2.25653,2.19145 -3.02376,1.29864 -2.25654,0.56815 -2.48219,1.90737 -0.90261,1.78563 -2.07601,1.33922 -3.61046,2.11029 0,0.97398 -0.94775,1.29863 -1.30879,-1.29863 -1.30879,-1.66388 -2.12115,-1.42039 -1.12826,-0.81165 2.03088,-1.29863 1.80523,-1.66388 1.44418,-1.21748 0,-1.90737 -1.7601,-1.01456 -1.08314,-0.81165 c 25.90504,-13.22988 55.9621,-20.73763 87.86952,-20.73763 16.38245,0 32.3136,2.0697 47.38726,5.80329 l -1.30879,0.73048 -4.5582,1.21748 -2.25654,0 -2.07601,-0.81165 -1.12827,0.85223 -2.21141,0.48699 -2.39192,0.48699 0,1.17689 2.34679,1.21747 3.38481,1.09573 2.25653,1.09572 0.63183,1.70447 2.07602,1.05514 2.03088,0.20291 3.47506,1.09573 3.47507,1.29864 2.25654,2.39436 2.66271,1.29864 2.43706,0.20291 2.66271,1.66388 2.84324,2.75961 2.03088,2.47552 2.84323,2.19146 2.03089,2.27261 2.66271,1.98854 2.88836,0 1.48932,0 2.16627,1.98854 2.66272,2.84077 2.48219,1.33922 2.43705,0 0.36105,-2.0697 -0.40618,-1.54213 0.63183,-2.06971 1.85036,0.16233 0.81236,2.55669 -0.22566,2.75961 1.21853,1.29864 3.42994,1.46097 1.7601,1.29863 2.12114,1.29864 1.71497,1.46097 0,1.82621 0.31591,2.96252 0.5867,1.66388 1.03801,1.29864 2.43706,1.78562 0,2.84077 1.94062,2.51612 0,2.80018 -0.94775,2.92194 -1.53444,2.39437 0,3.08426 3.42993,0 1.66984,1.33922 2.25654,0 2.93349,0 0.94775,1.90738 1.12827,2.71902 2.12114,2.39436 1.03801,4.17999 -3.88125,1.98854 -2.30166,0 -1.35392,1.13631 -0.22566,1.58271 1.62471,2.51612 1.85036,3.65242 2.66271,2.7596 2.43706,3.12485 1.21853,3.32777 0.81235,2.63786 1.62471,2.3132 2.66271,1.54213 3.29454,0 3.06889,-2.19145 1.62471,-3.57126 0.22565,-2.88135 0,-1.05515 -0.63183,-1.13631 1.7601,-2.19145 -0.76722,-1.82621 -1.39906,-1.82621 -0.99287,-2.39437 -0.40618,-2.55669 -0.18052,-4.42349 -1.44418,-0.93339 -1.44419,-0.73049 0.63183,-2.55669 1.62471,-1.09572 0.22565,-2.02912 -0.22565,-1.46097 1.21853,-0.73049 1.44418,1.09573 1.85036,2.19145 3.24941,1.29864 2.43706,1.46097 2.03089,2.02912 2.25653,2.92193 2.03088,2.19145 2.03089,-0.20291 -1.03801,-2.55669 -2.30167,-4.22057 2.3468,1.8262 1.39905,2.39437 1.44419,1.82621 0,1.74504 1.76009,0.2435 1.1734,-2.5567 0,-2.96252 0,-2.67843 c 3.92638,5.88445 7.89788,12.82404 10.56059,19.3984 l -2.25653,0 -1.48932,0 -2.43706,0.20291 0,2.63787 z m -233.732,78.52702 2.03088,2.84076 2.16627,0 0.99288,-1.25805 0,-1.33922 -1.26366,-0.52757 -1.53444,-0.32466 -1.12827,0 -1.26366,0.60874 z m 4.42281,6.37144 -1.71497,0 -1.39905,-0.36524 -1.08314,0.36524 0,1.29864 1.21853,1.33922 1.44418,1.33922 2.21141,0 0,-1.58271 0,-1.05515 -0.67696,-1.33922 z m 7.13065,21.58986 -0.76722,-1.42038 -2.9335,-0.32466 -1.53444,0.32466 -1.12827,1.42038 0,0.89281 1.71497,1.74505 2.70784,0 1.48931,0 0.49644,-1.66388 0,-0.97398 z m 5.867,-4.42348 1.48931,-1.98854 -1.1734,-0.85224 -1.89549,-0.32466 -1.1734,-0.81164 -1.30879,-0.64932 -1.57957,-1.09573 -2.88837,-0.77107 -2.30167,-0.64931 -1.1734,-1.46097 -1.17339,-1.25806 -2.61759,-0.56815 -2.88836,-0.64932 -3.88124,0 -3.42994,0 -3.02376,0.97398 -1.7601,1.33922 -1.57958,0.6899 0,0.97398 1.57958,0.85223 2.57245,-1.09573 2.57246,-0.64932 2.07601,0 2.39193,1.33922 1.53444,0 4.1069,1.50156 2.03088,1.09572 1.89549,1.25806 2.43706,1.66388 0.99288,1.05514 1.71496,0 2.03089,-0.73048 2.43705,0.73048 1.98576,0 z m 14.80287,0.12174 c -1.89549,0.0406 -2.88836,-0.40582 -2.88836,-0.40582 l -2.03089,-1.01456 -3.02375,0 c 0,0 -1.85036,-0.52757 -2.84324,-0.32466 0,0 -4.01663,-0.20291 -2.03088,1.66388 l 0,1.33922 -0.85749,1.21747 -0.76722,1.05514 1.21853,1.21748 2.3468,0 3.42993,0 2.43706,0 2.39193,-2.19145 2.03088,0 1.7601,-0.97398 c -0.0451,-0.0406 0.67696,-1.6233 -1.1734,-1.58272 z m 8.71023,2.51611 -0.67696,-0.60873 -0.76722,-0.28408 -2.9335,0 0,1.33922 2.21141,1.74505 2.2114,0 0,-2.19146 z m 11.32781,0.97398 -0.49644,-0.52757 -1.57957,-0.44641 -0.94775,0 -1.94062,-0.89281 0,1.33922 1.94062,1.09573 3.02376,-0.56816 z m 2.3468,5.19455 1.48931,0 -0.72209,-0.97397 -1.12827,-0.77107 -1.08313,0 -0.76722,0.77107 1.12826,0.97397 1.08314,0 z m 3.74585,7.50776 -1.44418,-1.17689 -1.7601,0.52757 0,1.94795 2.9335,0 0.27078,-1.29863 z m 0.0451,-3.73359 -0.85748,-1.13631 -1.44419,0 -1.08313,1.13631 1.08313,1.05514 1.48932,0 0.81235,-1.05514 z m 0.13539,-118.17607 -1.08313,-1.42039 -1.62471,-1.54213 0.22565,-1.29864 -0.27078,-1.54213 -0.54157,-0.89281 -1.30879,-0.12175 -2.52732,-0.60874 -0.76722,-0.73048 -0.27079,-1.05515 -1.53444,0 -1.35392,-0.77106 -1.57958,0.77106 0,2.19146 c 0,0 0.63183,2.23203 -1.35392,4.05824 l -1.08314,1.94796 0,2.35378 c 0,0 -0.99287,2.63787 0,2.63787 l 2.43706,0 c 0,0 1.89549,-3.69301 5.50595,-2.11029 l 1.71497,1.33922 1.71496,0.77107 3.24942,0 0.49643,-1.33923 0,-2.63786 z m 4.91925,123.20829 -1.44418,-1.3798 -0.31592,1.25806 0.7221,1.86679 0.99287,0 0,-1.74505 z m -14.89311,-216.06091 0.18053,-0.89282 3.29454,0 2.43706,-0.52757 2.03088,0.48699 4.06177,-0.24349 4.28741,0.32466 4.28742,0.16233 3.74585,-0.56816 2.97863,-1.98854 -7.13065,-0.77106 -1.85036,0.73048 -5.68647,0.40582 -8.16866,-0.93339 -2.84324,-1.21747 -2.43706,-0.40583 -2.25654,0.73048 -1.6247,2.51612 -2.84324,0 -4.06176,2.51611 -2.25654,0.60873 -3.47506,1.05515 -4.51308,2.19145 -4.51307,1.29864 c -5.50595,-0.20291 -4.28742,3.12485 -5.91212,2.7596 -1.62471,-0.36524 -3.47507,2.59728 -4.06177,2.59728 -0.63183,0 5.7316,1.90737 5.7316,1.90737 l 1.44419,-0.81164 4.46794,0 5.46082,-0.60874 3.83611,-3.2466 1.71497,0.12175 1.57957,-1.58271 0,0.77106 2.43706,-0.77106 0,1.42038 0.99288,2.11029 0,1.66388 1.44418,3.12485 2.75297,2.39436 -1.39905,1.70446 1.1734,2.51611 c 4.91925,1.09573 0.94774,5.3163 0.94774,5.3163 l 0,2.96252 1.85036,2.02912 2.16628,4.78873 c 0,0 3.92637,4.78873 4.96438,6.29028 1.038,1.50155 7.17578,3.9365 7.17578,3.9365 l 2.43706,1.58271 1.98575,0 c 2.97863,0 2.52732,-2.0697 2.52732,-2.0697 -1.21853,-2.39437 -0.22565,-17.16638 -0.22565,-17.16638 l 3.47507,-3.0031 c -1.39906,-0.93339 -1.35393,-2.96251 -0.31592,-2.80019 1.08314,0.20292 4.28742,-5.35688 4.28742,-5.35688 l 0,-2.63785 -0.27079,0 c 1.03801,-3.97708 -5.41568,-4.34233 -5.41568,-4.34233 0.22565,-2.39436 -4.15203,-3.12484 -4.15203,-3.12484 l 1.21853,-1.6233 -1.44418,-1.50155 c 0,0 -3.88124,0.16233 -4.51307,-1.09573 -0.63183,-1.25805 -3.88125,-1.66388 -3.88125,-1.66388 l -4.51307,-1.17689 -3.61046,-0.89281 z m 71.03576,24.7147 -1.44418,-1.17689 -1.03801,-1.46097 -4.06177,-2.19145 c 0,0 -3.11402,-1.90737 -4.51307,0 0,0 -0.40617,1.09573 0,2.19145 0,0 -4.28742,-1.09572 -4.91925,0 0,0 -4.28741,1.66388 1.03801,2.75961 0,0 2.25654,2.75961 3.88124,2.75961 0,0 0.22566,1.82621 4.28742,2.02912 0.0451,-0.0406 7.58196,1.6233 6.76961,-4.91048 z m 59.43716,27.06849 -0.99288,-1.78563 c 0,0 -2.43706,-0.20291 -2.61758,-2.02912 l -0.85748,-1.33922 -1.48932,0 -1.26366,-1.94796 -1.57957,-1.1363 -1.62471,-0.77107 -2.88836,-1.6233 -2.88837,-1.46097 -1.1734,-1.46096 -2.30167,-1.42039 -3.15915,-1.82621 -2.30166,-0.89281 -1.89549,-0.64932 c 0,0 -2.61758,-2.06971 -2.88837,1.54213 l -1.30879,1.29864 0.5867,1.46097 2.16627,0.77106 4.01664,1.54214 1.21853,1.05514 0.18052,3.24659 0,1.8668 0.63183,2.23203 -0.0451,2.39436 1.66984,1.54214 2.16627,0 1.80523,1.58271 1.57958,1.25806 0.5867,2.0697 1.89549,0.81165 1.038,0 0.5867,-2.0697 c 0,0 3.61046,-3.49009 4.78386,0.16233 0,0 -0.85749,1.6233 0,1.78563 0.85748,0.12174 2.30166,1.01456 2.30166,1.01456 l 1.89549,-0.81165 1.57958,-2.88136 c -0.13539,-0.0406 2.03088,-1.05514 0.5867,-3.53067 z"
       inkscape:connector-curvature="0"
       style="opacity:0.37300002;fill:#0039aa;fill-opacity:1;filter:url(#filter4382-6)"
       transform="matrix(0.91096154,0,0,0.86683696,101.56378,403.9909)" />
    <text
       xml:space="preserve"
       style="font-style:normal;font-variant:normal;font-weight:normal;font-stretch:normal;font-size:62.5px;line-height:125%;font-family:Geneva;-inkscape-font-specification:'Geneva, Normal';text-align:center;letter-spacing:0px;word-spacing:0px;writing-mode:lr-tb;text-anchor:middle;fill:#0f2a61;fill-opacity:1;stroke:none;stroke-width:1px;stroke-linecap:butt;stroke-linejoin:miter;stroke-opacity:1;filter:url(#filter5366)"
       x="398.82098"
       y="610.0376"
       id="text4290-5-5"
       sodipodi:linespacing="125%"><tspan
         sodipodi:role="line"
         id="tspan4331"
         x="398.82098"
         y="610.0376"><tspan
           style="font-style:italic;font-variant:normal;font-weight:normal;font-stretch:normal;font-size:87.5px;line-height:125%;font-family:'Lucida Calligraphy';-inkscape-font-specification:'Lucida Calligraphy, Italic';text-align:center;writing-mode:lr-tb;text-anchor:middle;fill:#0f2a61;fill-opacity:1"
           id="tspan4379">S</tspan><tspan
           style="font-style:normal;font-variant:normal;font-weight:normal;font-stretch:normal;font-size:52.5px;line-height:125%;font-family:Geneva;-inkscape-font-specification:'Geneva, Normal';text-align:center;writing-mode:lr-tb;text-anchor:middle;fill:#000000"
           id="tspan4429">patial</tspan></tspan></text>
    <text
       xml:space="preserve"
       style="font-style:normal;font-variant:normal;font-weight:normal;font-stretch:normal;font-size:62.5px;line-height:125%;font-family:Geneva;-inkscape-font-specification:'Geneva, Normal';text-align:center;letter-spacing:0px;word-spacing:0px;writing-mode:lr-tb;text-anchor:middle;fill:#0f2a61;fill-opacity:1;stroke:none;stroke-width:1px;stroke-linecap:butt;stroke-linejoin:miter;stroke-opacity:1;filter:url(#filter5380)"
       x="418.06934"
       y="679.13458"
       id="text4290-5-5-0"
       sodipodi:linespacing="125%"><tspan
         sodipodi:role="line"
         id="tspan4367"
         x="418.06934"
         y="679.13458"><tspan
           style="font-style:italic;font-variant:normal;font-weight:normal;font-stretch:normal;font-size:87.5px;line-height:125%;font-family:'Lucida Calligraphy';-inkscape-font-specification:'Lucida Calligraphy, Italic';text-align:center;writing-mode:lr-tb;text-anchor:middle;fill:#0f2a61;fill-opacity:1"
           id="tspan4381">E</tspan><tspan
           style="font-style:normal;font-variant:normal;font-weight:normal;font-stretch:normal;font-size:52.5px;line-height:125%;font-family:Geneva;-inkscape-font-specification:'Geneva, Normal';text-align:center;writing-mode:lr-tb;text-anchor:middle;fill:#000000"
           id="tspan4435">pi</tspan></tspan></text>
    <text
       xml:space="preserve"
       style="font-style:normal;font-variant:normal;font-weight:normal;font-stretch:normal;font-size:62.5px;line-height:125%;font-family:Geneva;-inkscape-font-specification:'Geneva, Normal';text-align:center;letter-spacing:0px;word-spacing:0px;writing-mode:lr-tb;text-anchor:middle;fill:#122d63;fill-opacity:1;stroke:none;stroke-width:1px;stroke-linecap:butt;stroke-linejoin:miter;stroke-opacity:1;filter:url(#filter5394)"
       x="499.13141"
       y="736.75562"
       id="text4290-5-5-4"
       sodipodi:linespacing="125%"><tspan
         sodipodi:role="line"
         id="tspan4377"
         x="499.13141"
         y="736.75562"><tspan
           style="font-style:italic;font-variant:normal;font-weight:normal;font-stretch:normal;font-size:87.5px;line-height:125%;font-family:'Lucida Calligraphy';-inkscape-font-specification:'Lucida Calligraphy, Italic';text-align:center;writing-mode:lr-tb;text-anchor:middle;fill:#122d63;fill-opacity:1"
           id="tspan4383">L</tspan><tspan
           style="font-style:normal;font-variant:normal;font-weight:normal;font-stretch:normal;font-size:52.5px;line-height:125%;font-family:Geneva;-inkscape-font-specification:'Geneva, Normal';text-align:center;writing-mode:lr-tb;text-anchor:middle;fill:#000000"
           id="tspan4437">ab</tspan></tspan></text>
  </g>
</svg>
